<?xml version="1.0" standalone="no"?><!DOCTYPE svg PUBLIC "-//W3C//DTD SVG 1.1//EN" "http://www.w3.org/Graphics/SVG/1.1/DTD/svg11.dtd"><svg t="1592721715343" class="icon" viewBox="0 0 1024 1024" version="1.1" xmlns="http://www.w3.org/2000/svg" p-id="2081" xmlns:xlink="http://www.w3.org/1999/xlink" width="200" height="200"><defs><style type="text/css"></style></defs><path d="M865.135 88.923H211.052v108.673h-79.509c-14.94 0-29.163 10.642-29.163 25.582v54.337c0 14.94 14.223 28.754 29.163 28.754h79.51v54.336h-79.51c-14.94 0-29.163 10.642-29.163 25.582v54.337c0 14.94 14.223 28.754 29.163 28.754h79.51v54.336h-79.51c-14.94 0-29.163 10.642-29.163 25.582v54.337c0 14.94 14.223 28.754 29.163 28.754h79.51v54.336h-79.51c-14.94 0-29.163 10.643-29.163 25.582v54.337c0 14.94 14.223 28.754 29.163 28.754h79.51V903.97h654.082c29.982 0 52.29-25.992 52.29-55.974V141.622c0.102-29.982-22.308-52.699-52.29-52.699z m-491.074 760.71H265.39v-54.337h29.163c14.94 0 25.173-13.814 25.173-28.754v-54.337c0-14.94-10.233-25.582-25.173-25.582H265.39v-54.336h29.163c14.94 0 25.173-13.814 25.173-28.754v-54.337c0-14.94-10.233-25.582-25.173-25.582H265.39v-54.336h29.163c14.94 0 25.173-13.814 25.173-28.754v-54.337c0-14.94-10.233-25.582-25.173-25.582H265.39V306.27h29.163c14.94 0 25.173-13.815 25.173-28.754v-54.337c0-14.94-10.233-25.582-25.173-25.582H265.39V143.26H374.06v706.372z" fill="" p-id="2082"></path></svg>