<?xml version="1.0" standalone="no"?><!DOCTYPE svg PUBLIC "-//W3C//DTD SVG 1.1//EN" "http://www.w3.org/Graphics/SVG/1.1/DTD/svg11.dtd"><svg t="1592054445561" class="icon" viewBox="0 0 1157 1024" version="1.1" xmlns="http://www.w3.org/2000/svg" p-id="9400" xmlns:xlink="http://www.w3.org/1999/xlink" width="225.9765625" height="200"><defs><style type="text/css"></style></defs><path d="M277.376 405.344h-256a21.344 21.344 0 0 1 0-42.688h256a21.344 21.344 0 0 1 0 42.688z m-42.688 128H21.344a21.344 21.344 0 0 1 0-42.688h213.344a21.344 21.344 0 0 1 0 42.688z m-42.656 128H21.376a21.376 21.376 0 0 1 0-42.688H192.032a21.376 21.376 0 0 1 0 42.688zM938.688 832H384.032c-29.28 0-54.688-11.552-71.648-32.416-16.896-20.896-22.816-48.16-16.672-76.832l92.192-430.464C399.808 236.992 455.392 192.032 512.032 192.032h554.656c29.312 0 54.752 11.52 71.712 32.48 16.896 20.896 22.784 48.16 16.672 76.768l-92.192 430.496c-12.064 55.264-67.616 100.256-124.192 100.256zM512.032 234.656c-36.896 0-74.624 30.496-82.336 66.56l-92.256 430.496c-3.36 15.648-0.48 30.24 8.16 40.992 8.672 10.656 22.272 16.608 38.432 16.608h554.656c36.896 0 74.656-30.496 82.4-66.592l92.192-430.496c3.424-15.744 0.544-30.304-8.096-40.992-8.608-10.656-22.24-16.608-38.368-16.608L512.032 234.656z m223.072 386.752c-2.688 0-5.408-0.16-8.064-0.416-28.064-2.464-53.152-17.504-70.432-42.24l-158.848-226.912a21.312 21.312 0 0 1 34.912-24.416l158.88 226.912c9.888 14.24 23.968 22.816 39.264 24.16 15.488 1.184 30.592-4.576 42.912-16.896l235.296-235.424a21.376 21.376 0 0 1 30.176 30.176l-235.296 235.424c-19.456 19.328-43.616 29.664-68.768 29.664z m175.136 80.576a21.76 21.76 0 0 1-16.096-7.328l-105.472-120.48a21.344 21.344 0 0 1 32.16-28.064l105.472 120.48a21.344 21.344 0 0 1-16.096 35.424z m-454.272 4.192a21.376 21.376 0 0 1-13.344-38.016l192.672-154.016a21.376 21.376 0 0 1 26.656 33.376l-192.672 153.984a21.152 21.152 0 0 1-13.312 4.704z" p-id="9401"></path></svg>