<?xml version="1.0" standalone="no"?><!DOCTYPE svg PUBLIC "-//W3C//DTD SVG 1.1//EN" "http://www.w3.org/Graphics/SVG/1.1/DTD/svg11.dtd"><svg t="1592054614395" class="icon" viewBox="0 0 1024 1024" version="1.1" xmlns="http://www.w3.org/2000/svg" p-id="11365" xmlns:xlink="http://www.w3.org/1999/xlink" width="200" height="200"><defs><style type="text/css"></style></defs><path d="M926.5152 220.40576H97.4848c-31.17056 0-56.5248 23.79776-56.5248 53.0432v477.14304c0 29.24544 25.35424 53.00224 56.5248 53.00224h829.0304c31.17056 0 56.5248-23.79776 56.5248-53.00224V273.44896c0-29.24544-25.35424-53.0432-56.5248-53.0432z m-12.86144 35.34848L512 534.20032 110.34624 255.75424h803.30752zM78.6432 743.26016V277.74976l285.40928 197.87776-285.40928 267.63264z m26.66496 24.9856l289.34144-271.40096 117.3504 81.34656 117.3504-81.34656 289.34144 271.40096H105.30816z m840.04864-24.9856l-285.36832-267.6736 285.36832-197.8368v465.5104z" p-id="11366"></path></svg>