<svg xmlns="http://www.w3.org/2000/svg" width="150" height="50" viewBox="0,0,150,50"><path fill="#333" d="M114.62 28.91L114.69 28.98L114.59 28.88Q112.10 28.94 111.08 30.12L110.97 30.02L111.14 30.19Q110.01 31.26 110.01 33.89L110.12 34.00L109.98 33.86Q110.04 39.03 114.65 38.84L114.65 38.84L114.60 38.79Q116.72 39.00 118.07 37.44L118.13 37.51L118.09 37.46Q119.44 35.90 119.21 33.85L119.28 33.91L119.20 33.83Q119.17 31.26 118.30 30.23L118.33 30.26L118.28 30.21Q116.90 28.98 114.69 28.98ZM119.61 38.66L119.68 38.73L119.67 38.72Q118.38 41.08 113.70 41.08L113.82 41.21L112.27 41.10L112.38 41.21Q109.95 41.14 108.84 40.00L108.98 40.13L108.80 39.96Q107.80 38.95 107.53 36.55L107.54 36.56L107.59 36.61Q107.41 35.10 107.34 33.31L107.38 33.36L107.40 33.38Q107.41 32.44 107.26 30.50L107.12 30.36L107.18 30.41Q107.02 26.06 112.19 26.06L112.24 26.12L113.79 26.11L113.71 26.02Q116.72 26.14 118.81 27.43L118.85 27.47L118.81 27.43Q119.62 27.93 120.12 28.62L120.09 28.59L120.07 28.57Q120.31 27.75 120.85 26.11L120.88 26.14L120.96 26.23Q122.08 25.94 124.40 25.33L124.40 25.33L124.44 25.37Q121.84 29.58 121.84 34.83L121.90 34.90L121.92 34.92Q121.76 38.49 123.13 41.57L123.13 41.57L123.12 41.56Q122.05 41.33 120.15 41.10L120.17 41.12L120.08 41.03Q119.87 40.18 119.57 38.62ZM123.05 44.00L123.03 43.98L125.14 44.45L125.23 44.54Q126.32 44.72 127.31 45.17L127.42 45.29L127.39 45.26Q123.78 40.96 123.78 34.87L123.64 34.73L123.79 34.88Q123.71 30.27 125.84 26.46L125.78 26.41L125.87 26.49Q125.17 26.67 123.84 27.05L123.81 27.02L123.91 27.13Q124.29 26.40 125.16 24.87L125.06 24.77L125.07 24.78Q124.62 25.09 120.63 25.93L120.47 25.77L119.98 27.68L119.99 27.69Q118.10 25.85 113.69 25.62L113.72 25.65L113.77 25.70Q112.69 25.77 110.45 25.92L110.41 25.88L110.46 25.93Q106.76 26.27 106.88 30.31L106.83 30.25L106.74 30.16Q107.01 33.64 107.58 38.09L107.60 38.11L107.61 38.54L107.64 38.57Q107.74 39.39 108.54 40.50L108.54 40.49L108.55 40.50Q108.62 40.57 108.81 40.69L108.89 40.77L108.81 40.69Q108.98 41.08 109.36 41.65L109.40 41.70L109.51 41.81Q110.92 43.33 114.31 43.52L114.28 43.49L114.27 43.49Q115.97 43.66 116.12 43.66L116.13 43.67L117.64 43.62L117.59 43.57Q120.71 43.49 121.93 41.93L122.04 42.04L122.02 42.02Q122.30 42.56 122.90 43.86ZM116.42 31.16L116.51 31.26L116.51 31.25Q117.72 31.13 118.56 31.59L118.50 31.54L118.50 31.53Q118.92 32.45 118.92 33.90L118.95 33.92L118.82 33.79Q119.08 35.77 117.80 37.20L117.82 37.21L117.82 37.22Q116.55 38.64 114.64 38.45L114.58 38.39L114.66 38.47Q113.12 38.38 112.09 37.96L112.10 37.96L112.21 38.07Q111.98 37.19 111.98 35.97L112.03 36.03L111.91 35.91Q112.01 32.35 114.64 31.40L114.74 31.50L114.62 31.38Q115.61 31.16 116.41 31.16Z"/><path d="M6 36 C74 6,77 39,130 39" stroke="#111" fill="none"/><path fill="#333" d="M50.43 49.54L50.42 49.53L50.56 49.67Q53.32 45.65 56.21 39.45L56.21 39.45L56.22 39.46Q53.27 33.08 47.18 25.01L47.15 24.98L47.09 24.92Q48.93 26.00 51.71 26.65L51.75 26.69L51.85 26.79Q55.28 31.36 57.71 36.57L57.78 36.63L57.78 36.64Q59.92 31.32 63.00 26.90L62.91 26.80L63.09 26.99Q65.26 26.60 67.35 25.80L67.27 25.72L67.39 25.85Q63.85 29.54 60.39 36.96L60.40 36.98L57.59 42.99L57.66 43.07Q56.22 46.20 54.47 48.82L54.46 48.81L54.45 48.80Q52.07 49.20 50.62 49.73ZM56.64 50.92L56.76 51.04L56.75 51.02Q58.46 48.13 59.90 44.85L59.94 44.89L62.68 38.57L62.63 38.52Q66.00 30.36 69.31 26.36L69.30 26.35L69.46 26.51Q67.97 27.03 66.07 27.72L66.13 27.78L67.26 26.47L67.28 26.49Q67.81 25.77 68.42 25.08L68.40 25.06L68.29 24.95Q65.58 25.97 62.72 26.43L62.81 26.51L62.78 26.49Q59.98 30.35 58.04 34.80L58.08 34.85L58.06 34.82Q56.59 31.68 54.80 28.86L54.66 28.72L54.67 28.73Q54.54 28.80 54.18 28.76L54.13 28.71L54.22 28.80Q53.84 28.74 53.65 28.74L53.60 28.69L53.69 28.78Q52.75 27.34 51.79 26.20L51.81 26.22L51.88 26.28Q48.69 25.60 45.95 23.89L45.95 23.89L46.05 24.00Q52.32 32.01 56.01 39.63L55.99 39.61L55.89 39.51Q53.72 44.57 49.64 50.20L49.65 50.21L49.74 50.30Q50.48 49.94 51.28 49.78L51.29 49.79L52.88 49.40L52.93 49.45Q52.40 50.26 51.22 51.89L51.04 51.71L51.12 51.79Q53.36 51.14 56.63 50.91Z"/><path fill="#333" d="M18.58 39.03L18.61 39.06L18.44 38.89Q20.26 36.45 25.02 29.18L25.12 29.28L25.14 29.30Q29.21 23.13 32.07 19.85L32.00 19.78L31.94 19.73Q29.89 20.08 27.80 20.08L27.80 20.08L27.93 20.21Q22.59 20.12 18.59 18.33L18.57 18.31L18.60 18.34Q17.94 16.42 17.25 14.86L17.30 14.90L17.29 14.90Q21.80 17.01 27.47 17.12L27.41 17.07L27.39 17.04Q32.51 17.10 37.69 15.19L37.81 15.32L37.87 15.38Q37.44 16.16 37.13 16.96L37.11 16.94L36.58 18.58L36.46 18.46Q33.40 22.10 29.40 27.93L29.46 27.98L26.16 32.83L26.17 32.84Q24.43 35.21 22.60 37.49L22.54 37.43L22.73 37.62Q26.04 37.01 29.35 37.09L29.29 37.02L29.35 37.08Q32.69 37.19 35.85 38.10L35.79 38.04L36.24 39.59L36.24 39.60Q36.45 40.37 36.79 41.21L36.92 41.35L36.83 41.25Q32.06 39.56 26.92 39.75L27.01 39.84L27.01 39.84Q21.85 40.02 17.36 42.04L17.46 42.14L17.49 42.16Q17.80 41.03 18.52 38.97ZM16.84 42.81L16.78 42.75L16.76 42.72Q17.96 42.10 18.76 41.84L18.81 41.89L18.79 41.86Q18.48 42.59 17.80 44.11L17.93 44.25L17.86 44.17Q23.49 41.96 29.47 42.19L29.62 42.34L29.60 42.32Q35.85 42.48 40.88 45.26L40.95 45.34L40.96 45.35Q39.52 42.91 38.72 40.74L38.75 40.77L38.71 40.73Q38.22 40.51 36.69 39.94L36.66 39.90L36.69 39.93Q36.46 39.13 36.04 37.65L36.13 37.74L36.08 37.68Q31.84 36.42 26.74 36.61L26.87 36.74L26.87 36.73Q28.87 33.86 32.41 28.31L32.49 28.39L32.57 28.46Q36.06 22.59 37.96 20.04L37.97 20.05L38.06 20.13Q38.49 18.66 39.51 15.95L39.50 15.94L39.67 16.12Q38.82 16.29 37.38 16.90L37.39 16.92L37.41 16.93Q37.78 16.17 38.51 14.64L38.58 14.72L38.60 14.73Q33.20 16.80 27.49 16.72L27.37 16.61L27.54 16.77Q21.40 16.49 16.45 13.98L16.53 14.06L16.57 14.10Q17.66 16.41 18.38 18.65L18.45 18.72L18.35 18.63Q19.57 19.27 20.37 19.50L20.24 19.37L20.38 19.51Q20.61 20.16 20.88 21.61L20.75 21.48L20.76 21.49Q24.66 22.72 29.53 22.53L29.38 22.39L29.51 22.52Q27.00 25.60 23.69 30.59L23.75 30.65L18.23 38.99L18.19 38.94Q17.92 40.31 16.90 42.86Z"/><path fill="#222" d="M85.60 29.69L85.69 29.79L85.57 29.67Q81.38 29.48 80.81 32.52L80.80 32.51L80.87 32.58Q80.76 33.73 80.95 34.61L80.80 34.45L80.91 34.56Q80.82 35.23 81.27 36.64L81.23 36.60L81.41 36.78Q82.41 39.87 85.72 39.72L85.72 39.72L85.81 39.80Q87.78 39.83 89.11 38.27L89.16 38.32L89.15 38.31Q90.35 36.81 90.35 34.75L90.38 34.79L90.39 34.80Q90.52 34.20 90.37 33.13L90.31 33.07L90.35 33.11Q90.19 32.12 89.77 31.44L89.90 31.57L89.87 31.54Q88.13 29.75 85.54 29.64ZM90.43 48.16L90.57 48.30L90.44 48.16Q88.57 48.70 80.50 49.08L80.57 49.14L80.63 49.20Q78.98 49.31 77.34 48.47L77.17 48.30L77.34 48.47Q78.17 47.50 79.99 45.72L79.90 45.63L79.87 45.59Q82.35 46.71 84.45 46.52L84.36 46.43L84.44 46.51Q87.35 46.26 88.19 46.00L88.18 45.99L88.09 45.90Q90.40 45.27 90.40 43.48L90.31 43.39L90.40 43.48Q90.44 43.30 90.36 43.07L90.22 42.92L90.29 41.51L90.29 41.51Q90.22 40.68 90.22 39.88L90.12 39.78L90.28 39.94Q88.75 42.03 85.36 42.03L85.35 42.01L85.47 42.14Q81.45 42.00 79.82 39.79L79.83 39.80L79.93 39.91Q78.78 38.33 77.98 33.92L78.00 33.94L78.07 34.01Q77.66 32.38 77.66 30.97L77.77 31.08L77.74 31.06Q77.79 29.31 78.70 28.32L78.58 28.20L78.71 28.32Q80.26 26.80 84.91 26.80L84.85 26.74L86.72 27.05L86.73 27.06Q89.82 27.29 91.15 29.24L91.32 29.40L91.30 29.38Q91.47 28.52 91.89 26.89L91.78 26.78L91.92 26.92Q93.55 26.35 95.31 25.62L95.49 25.81L95.46 25.78Q92.72 31.79 92.72 39.03L92.72 39.03L92.65 38.96Q92.75 41.72 93.13 44.35L93.12 44.34L93.20 44.42Q93.30 45.01 93.22 45.70L93.21 45.69L93.17 45.64Q93.14 47.17 91.92 47.93L91.92 47.94L91.73 47.75Q91.29 48.07 90.46 48.18ZM93.46 51.15L93.41 51.10L93.37 51.06Q94.87 51.15 95.63 50.20L95.66 50.23L95.69 50.26Q96.14 49.41 96.02 48.69L95.90 48.56L95.95 48.61Q95.74 47.87 95.55 47.11L95.55 47.11L95.70 47.26Q94.51 42.07 94.85 36.82L94.83 36.80L94.81 36.78Q95.18 31.36 97.31 26.52L97.18 26.39L95.12 27.38L95.14 27.40Q95.28 26.70 95.51 26.13L95.63 26.26L96.03 25.02L96.06 25.05Q93.78 26.08 91.57 26.50L91.59 26.51L91.45 26.38Q91.29 27.40 91.14 28.43L91.01 28.30L91.00 28.28Q88.98 26.46 84.95 26.46L84.82 26.33L83.13 26.39L83.09 26.36Q79.99 26.48 78.31 27.89L78.33 27.91L78.16 27.74Q77.27 28.75 77.31 30.66L77.45 30.80L77.26 30.61Q77.43 33.22 78.46 37.48L78.41 37.43L78.55 37.58Q79.01 39.48 80.23 40.89L80.23 40.89L80.46 41.12L80.47 41.13L80.57 41.23Q81.63 43.47 84.22 44.00L84.28 44.06L84.31 44.09Q85.53 44.21 86.98 44.25L87.06 44.33L87.17 44.44Q88.75 44.31 89.82 43.93L89.89 44.00L89.94 44.05Q89.25 45.53 86.58 45.87L86.59 45.88L86.69 45.98Q85.47 45.98 84.79 45.98L84.88 46.07L84.57 46.14L84.50 46.08Q81.69 46.08 80.02 45.13L80.06 45.18L78.32 46.86L78.34 46.88Q77.34 47.56 76.50 48.51L76.56 48.56L76.56 48.57Q77.50 49.05 78.49 49.24L78.62 49.36L77.79 50.29L77.73 50.23Q80.38 51.24 86.01 51.24L86.01 51.24L86.26 51.26L86.21 51.21Q89.82 51.20 93.39 51.08ZM87.46 31.98L87.46 31.98L87.55 32.07Q88.90 32.05 89.82 32.47L89.74 32.39L89.69 32.34Q90.01 32.96 90.08 33.65L90.07 33.63L90.05 33.61Q90.10 33.94 90.07 34.85L89.93 34.72L89.96 34.75Q89.86 36.63 88.76 37.92L88.88 38.04L88.87 38.03Q87.62 39.38 85.72 39.34L85.73 39.35L85.66 39.28Q84.28 39.27 83.44 38.85L83.38 38.78L83.37 38.77Q83.01 37.65 82.97 36.63L83.10 36.76L82.98 36.64Q82.98 32.41 87.59 32.11Z"/></svg>